<svg xmlns="http://www.w3.org/2000/svg" width="45" height="45.038" viewBox="0 0 45 45.038">
  <path id="telephone" d="M29.3,45.038C11.256,44.9-9.884,18.609,5.564,3.149c.549-.558,1.13-1.095,1.727-1.6a6.558,6.558,0,0,1,8.863.377l.023.023,2.976,3.092a6.451,6.451,0,0,1-2.119,10.478,14.2,14.2,0,0,0-2.35,1.16C13.044,18.352,12,21.065,18.129,27.2c1.989,1.992,4.934,4.641,7.542,4.641a4.165,4.165,0,0,0,2.967-1.368,13.666,13.666,0,0,0,1.087-2.251,6.438,6.438,0,0,1,10.483-2.16l3.056,2.958.022.021a6.571,6.571,0,0,1,.393,8.85c-.467.56-.965,1.106-1.482,1.623a17.847,17.847,0,0,1-12.9,5.519ZM11.524,3.523a3.063,3.063,0,0,0-1.973.725c-.511.429-1.009.889-1.48,1.368-8.235,8.365-3.709,19.79,4.2,27.613,7.841,7.8,19.209,12.067,27.434,3.805.443-.444.87-.912,1.27-1.391a3.037,3.037,0,0,0-.171-4.1l-3.054-2.956-.022-.021a2.9,2.9,0,0,0-4.741.974,13.556,13.556,0,0,1-1.81,3.374,7.637,7.637,0,0,1-5.508,2.452c-3.872,0-7.4-3.032-10.032-5.673-4-3.839-8.625-10.384-3.4-15.536A13.969,13.969,0,0,1,15.7,12.265a2.91,2.91,0,0,0,.946-4.747L16.628,7.5,13.654,4.4a3.013,3.013,0,0,0-2.13-.882ZM43.453,21.028a1.759,1.759,0,0,1-1.75-1.6A17.554,17.554,0,0,0,25.788,3.511,1.759,1.759,0,0,1,26.1.008a21.225,21.225,0,0,1,19.1,19.1,1.759,1.759,0,0,1-1.594,1.91Q43.533,21.028,43.453,21.028Zm-13.7,0A1.759,1.759,0,0,0,30.862,18.8a7.116,7.116,0,0,0-4.33-4.443,1.759,1.759,0,0,0-1.172,3.317,3.574,3.574,0,0,1,2.165,2.24,1.757,1.757,0,0,0,2.225,1.112Zm6.91-.015a1.759,1.759,0,0,0,1.492-1.99A14.169,14.169,0,0,0,26.195,7.063a1.759,1.759,0,0,0-.5,3.482,10.633,10.633,0,0,1,8.973,8.973,1.759,1.759,0,0,0,1.99,1.492Z" transform="translate(-0.214 -0.001)" fill="#f36f21"/>
</svg>
